# xmcd
#
# Track frame offsets:
# 150
# 24750
# 44017
# 60340
# 77007
# 98112
# 116117
# 132377
# 146060
# 156187
# 178347
#
# Disc length: 2567 seconds
#
#
# Revision: 0
# Processed by: cddbd v1.5.2PL0 Copyright (c) Steve Scherf et al.
# Submitted via: FreeRIP 2.941 
#
DISCID=950a050b
DTITLE=Karel Vágner - Romantické Melódie
DYEAR=1997
DGENRE=Romantic
TTITLE0=Lullaby
TTITLE1=Right To Love
TTITLE2=The Shadows
TTITLE3=The Message
TTITLE4=Romantic Wine
TTITLE5=Who Is That Stranger
TTITLE6=Sweet Dream Angel
TTITLE7=Like A Rolling Stone
TTITLE8=Don't Go
TTITLE9=Carry On
TTITLE10=Tongight, Tonight
EXTD=Duo Forum, Richard Hindls
EXTT0=
EXTT1=
EXTT2=
EXTT3=
EXTT4=
EXTT5=
EXTT6=
EXTT7=
EXTT8=
EXTT9=
EXTT10=
PLAYORDER=
